<?xml version="1.0" encoding="UTF-8"?>
<svg id="Layer_2" data-name="Layer 2" xmlns="http://www.w3.org/2000/svg" viewBox="0 0 280 60">
  <defs>
    <style>
      .cls-1 {
        fill: #b69651;
      }
    </style>
  </defs>
  <g id="Layer_1-2" data-name="Layer 1">
    <g>
      <path class="cls-1" d="M.82,1.47C3.88.76,6.73.41,9.36.41s4.84.08,6.65.24v20.38c1.15-.82,2.68-1.54,4.6-2.16,1.91-.62,3.75-.94,5.5-.94,5.96,0,10.15,1.52,12.56,4.57,2.41,3.04,3.61,8.23,3.61,15.57,0,4.08-.56,7.6-1.68,10.56-1.12,2.96-2.64,5.23-4.56,6.81-3.61,3.04-7.88,4.57-12.8,4.57-3.72,0-7.39-.92-11-2.77-1.04,1.41-2.24,2.12-3.61,2.12h-4.1V10.52c-1.92-.65-3.42-1.58-4.51-2.77L.82,1.47ZM22.57,51.68c5.25,0,7.88-4.37,7.88-13.12,0-4.62-.45-7.76-1.35-9.42-.9-1.66-2.48-2.49-4.72-2.49-3.39,0-6.18.9-8.37,2.69v20.95c2.35.92,4.54,1.39,6.57,1.39Z"/>
      <path class="cls-1" d="M67.13,60c-6.56,0-11.5-1.74-14.81-5.22-3.31-3.48-4.97-8.53-4.97-15.16,0-4.02.58-7.49,1.72-10.39,1.15-2.91,2.71-5.15,4.68-6.73,3.83-3.04,8.29-4.57,13.38-4.57s8.99,1.29,11.69,3.87c2.71,2.58,4.06,7.22,4.06,13.9,0,3.91-1.94,5.87-5.83,5.87h-17.81c.22,3.42,1.11,5.84,2.67,7.26,1.56,1.41,4.03,2.12,7.43,2.12,1.86,0,3.64-.22,5.33-.65,1.7-.43,2.93-.87,3.69-1.3l1.15-.65,2.46,6.52c-.33.38-.81.86-1.44,1.43s-2.22,1.33-4.76,2.28c-2.54.95-5.43,1.43-8.66,1.43ZM72.3,34.32c.11-.76.16-1.68.16-2.77s-.44-2.24-1.31-3.46c-.88-1.22-2.39-1.83-4.56-1.83s-3.82.65-4.96,1.96c-1.15,1.31-1.92,3.51-2.3,6.6l12.97-.49Z"/>
      <path class="cls-1" d="M104.3,25.27c-3.61,0-5.42,1.06-5.42,3.18s1.89,3.51,5.66,4.48l6.48,1.71c6.67,1.74,10.01,5.57,10.01,11.49,0,4.08-1.44,7.41-4.31,9.99-2.87,2.58-7.44,3.87-13.71,3.87s-11.15-.87-14.65-2.61c-.06-.6-.08-1.2-.08-1.79,0-2.99.6-5.68,1.8-8.07h6.81c.71,1.31,1.18,2.66,1.4,4.08,1.09.33,2.65.49,4.68.49,4.81,0,7.22-1.36,7.22-4.08,0-.87-.33-1.59-.98-2.16s-1.94-1.13-3.86-1.67l-6.48-1.87c-3.34-.92-5.94-2.3-7.8-4.12s-2.79-4.51-2.79-8.07,1.45-6.48,4.35-8.76c2.9-2.28,7.04-3.42,12.43-3.42s9.94.79,13.66,2.36c.05.54.08,1.09.08,1.63,0,2.83-.6,5.44-1.81,7.83h-6.73c-.71-1.25-1.18-2.55-1.4-3.91-1.53-.38-3.06-.57-4.6-.57Z"/>
      <path class="cls-1" d="M140.66,8.32v10.27h11.74v6.85h-11.74v20.63c0,1.74.25,3,.74,3.79.49.79,1.67,1.18,3.53,1.18s3.86-.41,5.99-1.22l2.46,6.36c-4.21,2.12-8.52,3.18-12.93,3.18s-7.39-.94-8.94-2.81c-1.56-1.88-2.34-4.61-2.34-8.19v-22.91h-3.69l-.9-4.97c.87-1.03,2.68-2.07,5.42-3.1.66-4.46,2.22-7.47,4.68-9.05h5.99Z"/>
      <path class="cls-1" d="M161.58,17.04c0-5.65,1.23-9.91,3.69-12.76,2.46-2.85,6.37-4.28,11.74-4.28s10.01,1.44,13.95,4.32c.05.38.08.94.08,1.67s-.19,1.94-.57,3.63c-.38,1.69-.9,3.04-1.56,4.08h-6.89c-.98-1.85-1.51-3.59-1.56-5.22-.66-.11-1.2-.16-1.64-.16-2.08,0-3.56.57-4.43,1.71-.88,1.14-1.31,3.21-1.31,6.2v3.1h12.56v7.5h-12.56v23.07c4.1.82,6.89,1.87,8.37,3.18l-.82,6.28h-22.73l-.82-6.28c.77-1.03,2.27-1.96,4.51-2.77v-23.48h-3.61l-.9-5.62c1.2-1.09,2.71-1.71,4.51-1.88v-2.28Z"/>
      <path class="cls-1" d="M189.07,1.47c3.06-.71,5.91-1.06,8.54-1.06s4.84.08,6.65.24v49.65c2.13.82,3.64,1.74,4.51,2.77l-.82,6.28h-18.88l-.82-6.28c.77-1.03,2.27-1.96,4.51-2.77V10.52c-1.92-.65-3.42-1.58-4.51-2.77l.82-6.28Z"/>
      <path class="cls-1" d="M213.94,18.59c3.06-.71,5.91-1.06,8.54-1.06s4.84.08,6.65.24v32.53c2.13.82,3.64,1.74,4.51,2.77l-.82,6.28h-18.88l-.82-6.28c.77-1.03,2.27-1.96,4.51-2.77v-22.66c-1.92-.65-3.42-1.58-4.51-2.77l.82-6.28ZM223.25,12.96c-4.57,0-6.85-2.05-6.85-6.15s2.28-6.15,6.85-6.15,6.85,2.05,6.85,6.15-2.28,6.15-6.85,6.15Z"/>
      <path class="cls-1" d="M259.73,34.57c.38-1.47,1.18-3.15,2.38-5.05l1.48-2.28c-1.59-.71-2.71-1.49-3.37-2.36l.82-6.28h18.06l.82,6.28c-1.09,1.47-3.31,2.64-6.65,3.5l-7.22,10.03,7.71,11.33c3.01.82,5.09,1.93,6.24,3.34l-.82,6.28h-18.87l-.82-6.28c.55-.71,1.56-1.41,3.04-2.12l-2.05-3.34c-.93-1.52-1.64-3.12-2.13-4.81l-.25-.82h-1.15c-.49,1.9-1.29,3.72-2.38,5.46l-1.97,3.1c1.86.82,3.12,1.66,3.77,2.53l-.82,6.28h-18.05l-.82-6.28c1.04-1.36,3.09-2.47,6.15-3.34l7.8-11.33-7.22-10.03c-3.28-.87-5.5-2.04-6.65-3.5l.82-6.28h18.88l.82,6.28c-.77.87-1.7,1.55-2.79,2.04l1.72,2.45c1.09,1.63,1.89,3.37,2.38,5.22h1.15Z"/>
    </g>
  </g>
</svg>